<?xml version="1.0" encoding="UTF-8"?>
<svg id="Layer_2" data-name="Layer 2" xmlns="http://www.w3.org/2000/svg" viewBox="0 0 316.05 352.68">
  <g id="Layer_1-2" data-name="Layer 1">
    <g>
      <path d="M158.03,169.53c-40.89,0-79.51-8.05-108.75-22.67C17.5,130.97,0,108.92,0,84.76S17.5,38.56,49.27,22.67C78.51,8.05,117.14,0,158.03,0s79.51,8.05,108.75,22.67c31.77,15.89,49.27,37.94,49.27,62.09s-17.5,46.2-49.27,62.09c-29.24,14.62-67.86,22.67-108.75,22.67ZM158.03,23c-37.39,0-72.36,7.19-98.47,20.24-23.23,11.62-36.56,26.75-36.56,41.52s13.33,29.9,36.56,41.52c26.11,13.05,61.08,20.24,98.47,20.24s72.36-7.19,98.47-20.24c23.23-11.62,36.56-26.75,36.56-41.52s-13.33-29.9-36.56-41.52c-26.11-13.05-61.08-20.24-98.47-20.24Z"/>
      <path d="M158.03,352.68c-40.81,0-89.34-5.06-102.49-44.5-.07-.2-.13-.41-.19-.61L5.22,123.78C1.76,111.09,0,97.96,0,84.76,0,78.41,5.15,73.26,11.5,73.26s11.5,5.15,11.5,11.5c0,11.15,1.48,22.24,4.41,32.96l50.04,183.47c4.56,13.33,18.02,28.49,80.57,28.49s76.2-15.37,80.67-28.77c6.05-18.16,22.84-79.75,49.92-183.08,0-.04.02-.08.03-.11,2.93-10.74,4.42-21.83,4.41-32.96,0-6.35,5.14-11.5,11.5-11.5h0c6.35,0,11.5,5.15,11.5,11.5,0,13.16-1.75,26.27-5.21,38.97-27.19,103.77-44.12,165.83-50.33,184.46-13.15,39.44-61.68,44.5-102.49,44.5Z"/>
      <path d="M158.03,279.85c-31.33,0-60.97-6.19-83.46-17.43-25.02-12.51-38.79-30.07-38.79-49.44s13.78-36.93,38.79-49.44c22.48-11.24,52.12-17.43,83.46-17.43s60.97,6.19,83.46,17.43c25.02,12.51,38.79,30.07,38.79,49.44s-13.78,36.93-38.79,49.44c-22.48,11.24-52.12,17.43-83.46,17.43ZM158.03,169.1c-58.49,0-99.25,23.12-99.25,43.88s40.76,43.88,99.25,43.88,99.25-23.12,99.25-43.88-40.76-43.88-99.25-43.88Z"/>
    </g>
  </g>
</svg>